<svg width="249" height="56" viewBox="0 0 249 56" fill="none" xmlns="http://www.w3.org/2000/svg">
<path d="M43.1501 18.5045C43.1826 18.5256 43.2146 18.5474 43.246 18.5699C43.2484 18.5715 43.2506 18.5731 43.2529 18.5748C43.2853 18.598 43.3172 18.6219 43.3485 18.6465C43.3498 18.6475 43.3509 18.6485 43.3522 18.6494C43.3842 18.6747 43.4157 18.7006 43.4465 18.7272C43.447 18.7276 43.4475 18.7281 43.448 18.7285C43.4794 18.7557 43.5101 18.7835 43.5402 18.812C43.6201 18.8877 43.6958 18.9677 43.766 19.0525C43.7999 19.0568 43.8339 19.0598 43.8684 19.0598C44.0461 19.0598 44.217 19.0057 44.3636 18.8818C44.6963 18.6107 44.7356 18.1231 44.4641 17.7901C44.1935 17.465 43.7058 17.4185 43.3724 17.6895C43.136 17.8921 43.0479 18.2052 43.1211 18.4862C43.1273 18.49 43.1334 18.494 43.1395 18.498C43.1432 18.5001 43.1466 18.5022 43.1501 18.5045Z" fill="#5C546A"/>
<path d="M38.6502 25.4471C38.2397 25.2997 37.7989 25.5167 37.6591 25.9189C37.5199 26.3294 37.737 26.7627 38.1392 26.9101C38.2246 26.9335 38.3093 26.9486 38.3947 26.9486C38.7123 26.9486 39.0139 26.7475 39.1228 26.43C39.2618 26.0278 39.0524 25.5863 38.6502 25.4471Z" fill="#5C546A"/>
<path d="M45.7419 16.9076C45.8811 17.1628 46.1441 17.3022 46.4156 17.3022C46.5395 17.3022 46.6787 17.2713 46.7944 17.2017C47.1664 16.9847 47.2979 16.5126 47.0809 16.1409C46.8723 15.7693 46.3997 15.6454 46.0285 15.8544C45.6565 16.0635 45.525 16.536 45.7419 16.9076Z" fill="#5C546A"/>
<path d="M40.3054 23.115C40.2729 23.0958 40.2409 23.076 40.2094 23.0556C40.206 23.0534 40.2026 23.0513 40.1993 23.0491C40.1697 23.0298 40.1405 23.0098 40.1118 22.9895C40.1067 22.9858 40.1015 22.9822 40.0964 22.9785C40.0689 22.9588 40.0419 22.9385 40.0153 22.9177C40.0093 22.9131 40.0033 22.9084 39.9973 22.9036C39.9716 22.8832 39.9461 22.8625 39.9212 22.8411C39.9148 22.8357 39.9084 22.8301 39.902 22.8245C39.8777 22.8035 39.8536 22.782 39.8301 22.76C39.8235 22.7539 39.8172 22.7477 39.8107 22.7415C39.7875 22.7195 39.7646 22.6972 39.7422 22.6744C39.7362 22.6683 39.7304 22.6619 39.7244 22.6557C39.7019 22.6323 39.6796 22.6087 39.6579 22.5846C39.6571 22.5836 39.6562 22.5827 39.6554 22.5818C39.386 22.585 39.1245 22.726 38.983 22.9772C38.7744 23.3488 38.9059 23.8209 39.2854 24.0304C39.4011 24.0999 39.5327 24.1309 39.6567 24.1309C39.9281 24.1309 40.1912 23.9835 40.3379 23.7279C40.4331 23.5527 40.4531 23.3552 40.4096 23.1733C40.3747 23.1548 40.3405 23.1355 40.3066 23.1156C40.3061 23.1154 40.3057 23.1152 40.3054 23.115Z" fill="#5C546A"/>
<path d="M37.5199 29.9374C37.5584 29.9449 37.597 29.9525 37.6363 29.9525C38.0151 29.9525 38.3402 29.6818 38.4022 29.2947C38.4718 28.8766 38.186 28.4736 37.7595 28.4116C37.3415 28.342 36.9392 28.6286 36.8772 29.0543C36.8077 29.4724 37.0943 29.8753 37.5199 29.9374Z" fill="#5C546A"/>
<path d="M42.2271 44.1979C42.5522 43.9189 42.5832 43.4313 42.3042 43.1062C42.026 42.7811 41.5376 42.7425 41.2125 43.0207C40.8874 43.2997 40.8564 43.7874 41.1354 44.1124C41.2828 44.2909 41.4991 44.3839 41.716 44.3839C41.8944 44.3839 42.0796 44.3219 42.2271 44.1979Z" fill="#5C546A"/>
<path d="M39.9121 41.8753C40.0512 41.8753 40.1827 41.8368 40.3067 41.7665C40.6787 41.5419 40.7944 41.0702 40.5782 40.7065C40.3612 40.3345 39.8811 40.2105 39.5174 40.435C39.1454 40.652 39.0298 41.1245 39.246 41.4958C39.3934 41.7355 39.6489 41.8753 39.9121 41.8753Z" fill="#5C546A"/>
<path d="M37.4269 33.0341C37.8602 33.0258 38.2011 32.678 38.1935 32.2516C38.186 31.8184 37.8374 31.4774 37.4118 31.4857C36.9779 31.4933 36.6376 31.8419 36.6452 32.2675C36.6527 32.6931 37.0013 33.0341 37.4194 33.0341C37.4269 33.0341 37.4269 33.0341 37.4269 33.0341Z" fill="#5C546A"/>
<path d="M39.2928 38.0353C39.1378 37.6407 38.6963 37.4388 38.2941 37.5862C37.8911 37.7412 37.69 38.1903 37.845 38.5849C37.9614 38.8941 38.2555 39.0876 38.5648 39.0876C38.6578 39.0876 38.7508 39.0725 38.8438 39.0339C39.2384 38.8866 39.4395 38.4376 39.2928 38.0353Z" fill="#5C546A"/>
<path d="M37.7285 36.1074C37.7754 36.1074 37.8215 36.1074 37.8759 36.0998C38.294 36.0144 38.573 35.6122 38.4951 35.1941C38.4104 34.7761 38.0074 34.4971 37.5894 34.5742C37.1638 34.6521 36.8923 35.0626 36.9702 35.4807C37.0398 35.8519 37.365 36.1074 37.7285 36.1074Z" fill="#5C546A"/>
<path d="M48.4901 15.4984C48.6065 15.8159 48.9006 16.0094 49.2258 16.0094C49.3105 16.0094 49.3959 15.9939 49.4814 15.963C49.8836 15.8235 50.093 15.3748 49.9532 14.9722C49.8064 14.5696 49.365 14.3606 48.9628 14.5076C48.5597 14.6466 48.3511 15.0958 48.4901 15.4984Z" fill="#5C546A"/>
<path d="M71.2283 26.1669C71.3439 26.4761 71.6388 26.678 71.9556 26.678C72.0486 26.678 72.1341 26.6621 72.2195 26.6312C72.6217 26.4845 72.8312 26.0354 72.6838 25.6325C72.5364 25.2303 72.0956 25.0292 71.6926 25.1758C71.2903 25.3232 71.0809 25.764 71.2283 26.1669Z" fill="#5C546A"/>
<path d="M68.3712 19.9734C68.0462 20.2445 68.0075 20.7396 68.2782 21.0647C68.4333 21.2428 68.6502 21.3437 68.8747 21.3437C69.0449 21.3437 69.2233 21.2817 69.3699 21.1577C69.695 20.8866 69.7419 20.399 69.4629 20.066H69.4705C69.1923 19.7409 68.7046 19.6944 68.3712 19.9734Z" fill="#5C546A"/>
<path d="M66.0955 17.8829C65.8165 18.2079 65.8634 18.696 66.1885 18.9746C66.3352 19.0906 66.5135 19.1526 66.6912 19.1526C66.9082 19.1526 67.1252 19.0596 67.2794 18.874C67.5584 18.5486 67.5123 18.0609 67.1872 17.7823C66.8621 17.5114 66.3737 17.5499 66.0955 17.8829Z" fill="#5C546A"/>
<path d="M72.6452 35.8133C72.6837 35.8208 72.7298 35.8208 72.7767 35.8208C73.1404 35.8208 73.4654 35.5577 73.535 35.1782C73.6054 34.7601 73.3264 34.3578 72.9082 34.2883C72.4826 34.2104 72.0795 34.497 72.01 34.9151C71.9406 35.3408 72.2195 35.7355 72.6452 35.8133Z" fill="#5C546A"/>
<path d="M72.8924 29.6508C73.3105 29.5729 73.597 29.1707 73.5199 28.7526C73.4503 28.3346 73.0474 28.048 72.6217 28.1258C72.2037 28.203 71.9247 28.5976 71.9949 29.0232C72.0645 29.3952 72.3896 29.6584 72.7608 29.6584C72.8001 29.6584 72.8463 29.6584 72.8924 29.6508Z" fill="#5C546A"/>
<path d="M51.4478 14.585C51.5174 14.9566 51.8425 15.2273 52.2137 15.2273C52.2605 15.2273 52.2992 15.2197 52.346 15.2197C52.7634 15.1422 53.0498 14.7396 52.9804 14.3216C52.9032 13.9035 52.5086 13.6174 52.0822 13.6868C51.664 13.7644 51.3783 14.159 51.4478 14.585Z" fill="#5C546A"/>
<path d="M63.4939 16.2105C63.2769 16.5821 63.4009 17.0547 63.7729 17.2713C63.7729 17.2637 63.7729 17.2637 63.7729 17.2637C63.8885 17.3412 64.0285 17.3718 64.16 17.3718C64.4231 17.3718 64.6863 17.2326 64.8253 16.9847C65.0423 16.621 64.9183 16.1489 64.5471 15.9319C64.1751 15.7153 63.7033 15.8389 63.4939 16.2105Z" fill="#5C546A"/>
<path d="M54.5212 14.1979C54.5212 14.6235 54.8698 14.9721 55.2954 14.9721C55.721 14.9721 56.0696 14.6235 56.0696 14.1979C56.0696 13.7719 55.7286 13.4237 55.3029 13.4237C54.8697 13.4237 54.5287 13.7644 54.5212 14.1979Z" fill="#5C546A"/>
<path d="M57.618 14.3371C57.5408 14.7631 57.8191 15.1577 58.2448 15.2352C58.2841 15.2428 58.3302 15.2507 58.3763 15.2507C58.7483 15.2507 59.0734 14.9876 59.1429 14.608C59.2125 14.19 58.9343 13.7874 58.5161 13.7099C58.0904 13.6404 57.6875 13.9189 57.618 14.3371Z" fill="#5C546A"/>
<path d="M60.6376 15.0186C60.4902 15.4208 60.6913 15.8624 61.0943 16.0094C61.1873 16.0404 61.272 16.0559 61.365 16.0559C61.6749 16.0559 61.9766 15.8623 62.0848 15.5527C62.2322 15.1502 62.0311 14.701 61.6281 14.554C61.2258 14.4069 60.7842 14.6161 60.6376 15.0186Z" fill="#5C546A"/>
<path d="M73.0323 31.1916C72.5983 31.1916 72.2581 31.5395 72.2581 31.9658C72.2581 32.3991 72.6066 32.74 73.0323 32.74C73.4579 32.74 73.8065 32.3915 73.8065 31.9658C73.8065 31.5394 73.4579 31.1916 73.0323 31.1916Z" fill="#5C546A"/>
<path d="M70.6476 23.8753C70.7792 23.8753 70.9183 23.8368 71.0347 23.7665C71.406 23.5578 71.5299 23.0777 71.3213 22.714C71.1043 22.3424 70.6318 22.2105 70.2605 22.4275C69.8885 22.6441 69.7654 23.1166 69.9815 23.4882C70.1215 23.7355 70.3845 23.8753 70.6476 23.8753Z" fill="#5C546A"/>
<path d="M69.4168 42.7886C69.0834 42.5096 68.5957 42.5565 68.3251 42.8891C68.0536 43.2142 68.1005 43.7018 68.4256 43.9808C68.573 44.0973 68.7431 44.1593 68.9208 44.1593C69.1453 44.1593 69.3624 44.058 69.5173 43.8803C69.788 43.5477 69.7419 43.06 69.4168 42.7886Z" fill="#5C546A"/>
<path d="M61.1638 47.9759C60.7608 48.1226 60.5522 48.5641 60.7071 48.967C60.8227 49.2762 61.1168 49.4698 61.4345 49.4698C61.5199 49.4698 61.6129 49.4547 61.6976 49.4236C62.1005 49.2762 62.3016 48.8271 62.155 48.4325C62.0075 48.0304 61.5661 47.8208 61.1638 47.9759Z" fill="#5C546A"/>
<path d="M72.7071 38.2985C72.8538 37.8955 72.6451 37.4547 72.2421 37.3073C71.8399 37.1681 71.3983 37.3693 71.2517 37.7723C71.1119 38.1745 71.3137 38.6236 71.7159 38.7627C71.8089 38.7936 71.8944 38.8095 71.9791 38.8095C72.2966 38.8095 72.5982 38.616 72.7071 38.2985Z" fill="#5C546A"/>
<path d="M55.3649 49.0366C54.9393 49.0366 54.5907 49.3927 54.5982 49.8184C54.5982 50.244 54.9468 50.585 55.3724 50.585C55.3724 50.585 55.3724 50.585 55.3807 50.585C55.8064 50.5775 56.1466 50.2289 56.1466 49.8033C56.1391 49.3769 55.7906 49.0291 55.3649 49.0366Z" fill="#5C546A"/>
<path d="M70.2992 41.5116C70.4231 41.5812 70.5547 41.6197 70.6863 41.6197C70.9494 41.6197 71.2125 41.4806 71.3524 41.2251H71.3599C71.5685 40.8606 71.437 40.3805 71.0658 40.1719C70.6938 39.9549 70.222 40.0864 70.0126 40.4584C69.7956 40.8297 69.9279 41.3022 70.2992 41.5116Z" fill="#5C546A"/>
<path d="M49.5509 48.0689C49.1479 47.9215 48.7071 48.1385 48.5673 48.5406C48.4206 48.9436 48.6376 49.3852 49.0398 49.5318C49.1253 49.5552 49.2099 49.5703 49.2954 49.5703C49.6129 49.5703 49.9146 49.3768 50.0234 49.0517C50.1701 48.6571 49.9532 48.2079 49.5509 48.0689Z" fill="#5C546A"/>
<path d="M44.5263 46.2574C44.7977 45.9323 44.7508 45.4439 44.4182 45.1732C44.0931 44.9025 43.6055 44.9487 43.334 45.2813C43.0633 45.6064 43.1095 46.0948 43.4345 46.3654V46.373C43.5819 46.4894 43.7596 46.5439 43.9305 46.5439C44.155 46.5439 44.3712 46.4509 44.5263 46.2574Z" fill="#5C546A"/>
<path d="M58.3067 48.7576C57.8886 48.8355 57.6104 49.2377 57.6875 49.6558C57.7571 50.0278 58.0822 50.2909 58.4542 50.2909C58.4927 50.2909 58.5396 50.2909 58.5857 50.2826C59.0113 50.1979 59.2903 49.7949 59.2125 49.3769C59.1353 48.9587 58.7331 48.6805 58.3067 48.7576Z" fill="#5C546A"/>
<path d="M63.8349 46.7065C63.4629 46.9227 63.339 47.3952 63.5559 47.7665C63.7033 48.0068 63.9589 48.146 64.222 48.146C64.3612 48.146 64.4927 48.115 64.6167 48.0379C64.9804 47.8209 65.1119 47.3484 64.8957 46.9847C64.6787 46.6135 64.1986 46.4895 63.8349 46.7065Z" fill="#5C546A"/>
<path d="M46.8647 46.8455C46.4927 46.6361 46.0126 46.7676 45.804 47.1396C45.5945 47.5116 45.7261 47.9834 46.0981 48.1928C46.222 48.2624 46.3536 48.2934 46.4776 48.2934C46.7483 48.2934 47.0114 48.1535 47.1588 47.8987C47.3674 47.5267 47.2358 47.0543 46.8647 46.8455Z" fill="#5C546A"/>
<path d="M52.4156 48.8045C51.9892 48.7342 51.5945 49.0207 51.525 49.4389C51.4554 49.8645 51.7419 50.2676 52.1601 50.3371C52.2063 50.3446 52.2448 50.3446 52.2916 50.3446C52.6628 50.3446 52.9879 50.0739 53.0499 49.6944C53.1202 49.2763 52.8336 48.874 52.4156 48.8045Z" fill="#5C546A"/>
<path d="M66.2422 44.9955C66.2422 44.9872 66.2422 44.9872 66.2422 44.9872C65.9171 45.2662 65.8785 45.7538 66.1575 46.0789C66.3042 46.2649 66.5287 46.3579 66.7457 46.3579C66.9234 46.3579 67.1018 46.2959 67.2492 46.1719C67.5743 45.8929 67.6129 45.4053 67.3339 45.0802C67.0557 44.7551 66.5673 44.7165 66.2422 44.9955Z" fill="#5C546A"/>
<path d="M58.5698 18.4715C58.1525 18.3705 57.7344 18.6261 57.6331 19.0366C57.5325 19.4547 57.7881 19.8725 58.1986 19.9734C58.2606 19.9889 58.3226 19.9964 58.3846 19.9964C58.7332 19.9964 59.0499 19.7644 59.1354 19.4082C59.2358 18.9977 58.9804 18.572 58.5698 18.4715Z" fill="#5C546A"/>
<path d="M46.6091 23.1011C46.9183 22.8066 46.9266 22.3115 46.6318 22.0094C46.3301 21.6998 45.8425 21.6919 45.5325 21.9939V21.9864C45.2233 22.288 45.215 22.7757 45.5174 23.0856C45.6641 23.2403 45.8736 23.3256 46.0746 23.3256C46.2681 23.3257 46.4616 23.2482 46.6091 23.1011Z" fill="#5C546A"/>
<path d="M59.9949 45.0492C60.0879 45.0492 60.1802 45.0341 60.2732 44.9955C60.6761 44.8405 60.8697 44.3915 60.7147 43.9968C60.5597 43.5938 60.1107 43.4003 59.716 43.5552C59.3138 43.7103 59.1203 44.1593 59.2745 44.5539C59.3909 44.8632 59.685 45.0492 59.9949 45.0492Z" fill="#5C546A"/>
<path d="M45.2928 41.4103C45.4705 41.4103 45.6489 41.3483 45.7955 41.2251C46.1214 40.9385 46.1524 40.4509 45.8735 40.1258C45.5945 39.8083 45.1068 39.7697 44.7817 40.0555C44.4567 40.3345 44.4256 40.8221 44.7046 41.1472C44.8589 41.3181 45.0758 41.4103 45.2928 41.4103Z" fill="#5C546A"/>
<path d="M51.7956 20.066C51.866 20.066 51.9355 20.0584 51.9975 20.043C52.4156 19.9269 52.6553 19.5008 52.5472 19.0907C52.4383 18.6806 52.0127 18.4325 51.5946 18.5486C51.1848 18.6571 50.9368 19.0831 51.0524 19.4933C51.1454 19.8419 51.4554 20.066 51.7956 20.066Z" fill="#5C546A"/>
<path d="M48.7298 21.3282C48.8621 21.3282 48.9854 21.2973 49.1094 21.2273C49.4814 21.0186 49.6129 20.5461 49.4035 20.1745C49.1873 19.8029 48.7147 19.6714 48.3427 19.8804C47.9715 20.097 47.84 20.5695 48.057 20.9411C48.196 21.1887 48.4592 21.3282 48.7298 21.3282Z" fill="#5C546A"/>
<path d="M44.6578 25.5395C44.8823 25.1758 44.7666 24.6957 44.4022 24.4795C44.031 24.255 43.5584 24.3631 43.3339 24.7343C43.1094 25.0987 43.2258 25.5705 43.5895 25.795C43.7135 25.8729 43.8526 25.9115 43.9925 25.9115C44.2556 25.9114 44.5111 25.7798 44.6578 25.5395Z" fill="#5C546A"/>
<path d="M55.0943 19.6173C55.5199 19.6173 55.8685 19.2611 55.8602 18.8351C55.8602 18.4095 55.504 18.0689 55.0784 18.0689C54.6528 18.0764 54.3118 18.425 54.3118 18.8506C54.3201 19.2766 54.6604 19.6173 55.086 19.6173H55.0943V19.6173Z" fill="#5C546A"/>
<path d="M61.8525 19.7409H61.845C61.473 19.5398 61.0012 19.6789 60.8001 20.0509C60.5982 20.4301 60.7381 20.9022 61.1093 21.1037C61.2257 21.1657 61.3573 21.1967 61.4813 21.1967C61.752 21.1967 62.0234 21.0493 62.1625 20.7941C62.3637 20.4145 62.2245 19.9424 61.8525 19.7409Z" fill="#5C546A"/>
<path d="M42.0411 32.2055C42.057 32.213 42.0645 32.213 42.0721 32.213C42.4901 32.213 42.8312 31.8803 42.8463 31.4698C42.8697 31.0442 42.5363 30.6805 42.1106 30.6571C41.685 30.642 41.3213 30.9746 41.2979 31.4003H41.3054C41.2828 31.8259 41.6154 32.1904 42.0411 32.2055Z" fill="#5C546A"/>
<path d="M66.8001 38.3294C66.9006 38.3756 67.0163 38.399 67.1252 38.399C67.4193 38.399 67.6975 38.2364 67.8298 37.9574C68.0075 37.5703 67.8449 37.1136 67.4578 36.9276C67.0707 36.7424 66.614 36.9125 66.428 37.2996C66.2422 37.6793 66.413 38.1434 66.8001 38.3294Z" fill="#5C546A"/>
<path d="M67.0013 28.1409C67.1018 28.466 67.4035 28.6754 67.7286 28.6754C67.8141 28.6754 67.8912 28.6595 67.9767 28.6361C68.3796 28.5046 68.6042 28.0638 68.4719 27.6608C68.3327 27.2503 67.8995 27.034 67.489 27.1656C67.086 27.2972 66.8621 27.7304 67.0013 28.1409Z" fill="#5C546A"/>
<path d="M69.1303 31.1137V31.1062C69.1069 30.6806 68.7357 30.3554 68.3093 30.3864C67.8837 30.409 67.5585 30.781 67.5895 31.2067C67.6129 31.6173 67.9532 31.9348 68.3561 31.9348C68.3795 31.9348 68.3946 31.9348 68.4106 31.9265C68.8361 31.9038 69.1613 31.5394 69.1303 31.1137Z" fill="#5C546A"/>
<path d="M68.1549 35.2478C68.5186 35.2478 68.8437 34.9847 68.9133 34.6135C68.9987 34.1954 68.7197 33.7925 68.3016 33.7078C67.876 33.6299 67.473 33.9089 67.3959 34.3269C67.3189 34.745 67.5895 35.1548 68.0151 35.2326C68.0619 35.2403 68.1081 35.2478 68.1549 35.2478Z" fill="#5C546A"/>
<path d="M66.7223 25.5553C67.086 25.3233 67.1873 24.8432 66.9627 24.4795V24.487C66.7298 24.1226 66.2505 24.022 65.8861 24.2466C65.5299 24.4795 65.4294 24.9588 65.654 25.3233C65.8014 25.5478 66.0486 25.6794 66.3042 25.6794C66.4516 25.6793 66.5982 25.6324 66.7223 25.5553Z" fill="#5C546A"/>
<path d="M64.7482 39.924C64.7482 39.9323 64.7482 39.9323 64.7482 39.9323C64.4692 40.2574 64.5161 40.745 64.8487 41.0157C64.9879 41.1396 65.1663 41.2017 65.3439 41.2017C65.5609 41.2017 65.7855 41.1011 65.9329 40.9227C66.2111 40.59 66.165 40.1023 65.8399 39.831C65.5073 39.5527 65.0189 39.5989 64.7482 39.924Z" fill="#5C546A"/>
<path d="M42.3511 35.5192C42.4048 35.5192 42.4516 35.5116 42.5053 35.5033C42.9317 35.4103 43.1948 35.0006 43.1094 34.5824C43.0164 34.1644 42.6066 33.8929 42.1885 33.9859C41.7704 34.0714 41.499 34.4819 41.592 34.9075C41.6699 35.2637 41.9866 35.5192 42.3511 35.5192Z" fill="#5C546A"/>
<path d="M49.9841 44.1049C49.8374 44.5071 50.0462 44.9487 50.4491 45.0961C50.5338 45.1346 50.6268 45.1498 50.7123 45.1498C51.0298 45.1498 51.3239 44.9487 51.4396 44.6387C51.587 44.2365 51.3784 43.7874 50.9829 43.6483C50.5806 43.5008 50.1315 43.7019 49.9841 44.1049Z" fill="#5C546A"/>
<path d="M42.6293 28.9386C42.9627 28.9386 43.272 28.7216 43.3725 28.3889C43.4965 27.9784 43.2644 27.5451 42.8539 27.4211C42.4517 27.2972 42.0177 27.5292 41.8945 27.9397C41.7705 28.3419 41.995 28.776 42.4048 28.9075C42.4826 28.9227 42.5597 28.9386 42.6293 28.9386Z" fill="#5C546A"/>
<path d="M63.6104 21.8314C63.3163 22.1409 63.339 22.6365 63.6489 22.9231C63.7956 23.0622 63.9892 23.1321 64.1752 23.1321C64.3846 23.1321 64.5933 23.0466 64.7407 22.8841C65.0348 22.5669 65.019 22.0789 64.7022 21.7927C64.3922 21.4984 63.8969 21.5138 63.6104 21.8314Z" fill="#5C546A"/>
<path d="M43.4428 38.6546C43.5584 38.6546 43.6825 38.6236 43.7906 38.5691C44.1701 38.3756 44.3251 37.9114 44.1392 37.5318C43.9456 37.1523 43.4814 36.9897 43.1018 37.1832C42.7147 37.3768 42.5597 37.8418 42.7533 38.2213C42.8849 38.492 43.1638 38.6546 43.4428 38.6546Z" fill="#5C546A"/>
<path d="M57.5454 45.0481C57.546 45.0589 57.5459 45.07 57.5463 45.0809C57.5463 45.0699 57.5459 45.059 57.5454 45.0481Z" fill="#5C546A"/>
<path d="M62.4567 42.0613C62.1157 42.3086 62.0311 42.7962 62.2865 43.1372C62.4333 43.3541 62.6736 43.4622 62.9134 43.4622C63.0684 43.4622 63.2309 43.4161 63.3625 43.3148C63.7111 43.0676 63.7881 42.5799 63.5409 42.239C63.2928 41.8904 62.8052 41.8133 62.4567 42.0613Z" fill="#5C546A"/>
<path d="M47.1277 42.4091C46.8874 42.7577 46.9727 43.2454 47.3288 43.4857C47.4604 43.5787 47.6154 43.6249 47.7621 43.6249C48.0101 43.6249 48.2505 43.5085 48.4048 43.284C48.6452 42.9362 48.5598 42.4561 48.2037 42.2081C47.8551 41.9683 47.3674 42.053 47.1277 42.4091Z" fill="#5C546A"/>
<path d="M34.3301 37.8108C34.222 37.4003 33.7956 37.1523 33.3783 37.2687C32.9677 37.3851 32.7273 37.8108 32.8438 38.2213C32.9368 38.5616 33.246 38.7936 33.587 38.7936C33.6566 38.7936 33.7262 38.7785 33.7956 38.7627C34.2062 38.647 34.4465 38.2213 34.3301 37.8108Z" fill="#5C546A"/>
<path d="M54.1107 10.35C54.1265 10.35 54.1416 10.35 54.1492 10.35C54.5756 10.3345 54.9083 9.97081 54.8849 9.54481C54.8698 9.11126 54.5053 8.7861 54.0797 8.80952C53.6465 8.825 53.3214 9.18868 53.3365 9.61429C53.3599 10.0325 53.7008 10.35 54.1107 10.35Z" fill="#5C546A"/>
<path d="M68.1701 14.6081C68.3016 14.7166 68.4642 14.7632 68.6268 14.7632C68.8672 14.7632 69.0994 14.6547 69.2543 14.4532C69.5015 14.1125 69.432 13.6249 69.0917 13.3694C68.7508 13.1138 68.263 13.1838 68.0075 13.5245C67.752 13.8725 67.8215 14.3605 68.1701 14.6081Z" fill="#5C546A"/>
<path d="M51.0449 10.714C51.0917 10.714 51.1379 10.714 51.1847 10.6985C51.6021 10.621 51.881 10.2185 51.8039 9.80039C51.726 9.37477 51.3162 9.10371 50.8982 9.18123C50.4801 9.25836 50.2011 9.66887 50.2782 10.0869C50.3486 10.4585 50.6736 10.714 51.0449 10.714Z" fill="#5C546A"/>
<path d="M35.3288 40.6286C35.1587 40.2339 34.702 40.0555 34.3149 40.2264C33.9195 40.3965 33.7418 40.8532 33.912 41.2403C34.0359 41.5344 34.3225 41.7128 34.6166 41.7128C34.7247 41.7128 34.8252 41.6894 34.9265 41.6433C35.3213 41.4724 35.499 41.0157 35.3288 40.6286Z" fill="#5C546A"/>
<path d="M62.7583 52.3345C62.3561 52.4819 62.155 52.931 62.3016 53.3332C62.4181 53.6432 62.7122 53.8367 63.0297 53.8367C63.1144 53.8367 63.2074 53.8208 63.3004 53.7899C63.695 53.6348 63.9044 53.1941 63.757 52.7912C63.6104 52.389 63.1613 52.1871 62.7583 52.3345Z" fill="#5C546A"/>
<path d="M53.9481 53.6433C53.5225 53.6198 53.1588 53.9449 53.1354 54.3706C53.112 54.7963 53.437 55.1682 53.8634 55.1916C53.8785 55.1916 53.8861 55.1916 53.9019 55.1916C54.3117 55.1916 54.6527 54.8741 54.6761 54.4636C54.6989 54.0379 54.3737 53.6659 53.9481 53.6433Z" fill="#5C546A"/>
<path d="M65.654 12.9977C65.7704 13.0597 65.902 13.0907 66.026 13.0907C66.2967 13.0907 66.5674 12.9436 66.7072 12.6881C66.9083 12.3165 66.7768 11.8444 66.4048 11.6429C66.026 11.4338 65.5535 11.5654 65.3524 11.9449C65.1428 12.3165 65.2828 12.7887 65.654 12.9977Z" fill="#5C546A"/>
<path d="M56.9368 53.6122C56.5112 53.6507 56.1935 54.0219 56.2322 54.4484C56.2556 54.8506 56.5958 55.1606 56.9988 55.1606C57.0215 55.1606 57.0373 55.1606 57.0608 55.1606C57.4865 55.1213 57.8041 54.7501 57.773 54.3244C57.7419 53.8986 57.3624 53.5812 56.9368 53.6122Z" fill="#5C546A"/>
<path d="M32.8898 29.5812C32.9291 29.5888 32.9602 29.5888 32.9987 29.5888C33.3783 29.5888 33.7109 29.3098 33.7654 28.9227C33.8266 28.4971 33.5325 28.11 33.1068 28.0479C32.6811 27.9859 32.2941 28.28 32.2321 28.7065C32.1701 29.1246 32.4642 29.5192 32.8898 29.5812Z" fill="#5C546A"/>
<path d="M32.7666 32.6697C33.1999 32.6697 33.5484 32.3294 33.5484 31.9038C33.5484 31.4699 33.2075 31.1296 32.7817 31.1213C32.3485 31.1213 32 31.4699 32 31.8955C32 32.3219 32.3403 32.6697 32.7666 32.6697Z" fill="#5C546A"/>
<path d="M33.0683 35.7514C33.4939 35.6969 33.7956 35.3099 33.7344 34.8842C33.6799 34.4585 33.2928 34.1644 32.8672 34.2181C32.4408 34.2725 32.1467 34.6596 32.2011 35.0853C32.2556 35.4807 32.5882 35.7589 32.9677 35.7589C33.0063 35.7589 33.0373 35.7589 33.0683 35.7514Z" fill="#5C546A"/>
<path d="M73.0323 19.0983C73.1948 19.0983 73.3573 19.0442 73.4965 18.9357C73.8374 18.6725 73.8995 18.1849 73.6439 17.8519C73.3807 17.5113 72.8923 17.4493 72.5522 17.7048C72.2195 17.9679 72.1575 18.456 72.413 18.7965C72.5673 18.9902 72.7918 19.0983 73.0323 19.0983Z" fill="#5C546A"/>
<path d="M35.6464 43.0207C35.2744 43.2453 35.1588 43.7178 35.3833 44.0815C35.53 44.3219 35.7855 44.4535 36.0486 44.4535C36.1802 44.4535 36.3201 44.4225 36.4516 44.3446C36.8153 44.1201 36.9317 43.6408 36.7072 43.2763C36.4826 42.9126 36.0101 42.7962 35.6464 43.0207Z" fill="#5C546A"/>
<path d="M70.9804 16.7757C71.1739 16.7757 71.375 16.6985 71.53 16.5515C71.8241 16.2416 71.8241 15.7539 71.5225 15.4519C71.2125 15.1503 70.7249 15.1578 70.4232 15.4598C70.1216 15.7694 70.1291 16.2571 70.4308 16.5591C70.5857 16.7061 70.7793 16.7757 70.9804 16.7757Z" fill="#5C546A"/>
<path d="M65.4839 51.1036C65.1043 51.3047 64.9653 51.7773 65.1664 52.1568C65.3055 52.4116 65.5769 52.559 65.8551 52.559C65.9715 52.559 66.1031 52.528 66.2195 52.466C66.5908 52.2649 66.7382 51.7924 66.5287 51.4211C66.3276 51.0417 65.8551 50.9025 65.4839 51.1036Z" fill="#5C546A"/>
<path d="M42.8002 49.7723C42.4516 49.5243 41.9715 49.6097 41.7236 49.9575C41.4763 50.3136 41.561 50.7937 41.9171 51.0417C42.0486 51.1347 42.2037 51.1808 42.3587 51.1808C42.5984 51.1808 42.8388 51.0652 42.9938 50.8481C43.2409 50.4995 43.1479 50.0194 42.8002 49.7723Z" fill="#5C546A"/>
<path d="M68.0075 49.5084C67.6666 49.764 67.5895 50.2441 67.845 50.5925C67.9924 50.802 68.2321 50.9101 68.4641 50.9101C68.6267 50.9101 68.7816 50.8632 68.9208 50.7627C69.2694 50.5071 69.3472 50.0195 69.0917 49.6793C68.8361 49.3307 68.3561 49.2611 68.0075 49.5084Z" fill="#5C546A"/>
<path d="M74.7432 21.6688C74.8747 21.6688 75.0064 21.6378 75.1228 21.5682C75.494 21.3592 75.6255 20.8866 75.4169 20.515C75.1999 20.1434 74.7274 20.0119 74.3561 20.2289C73.9841 20.4379 73.8526 20.9101 74.0696 21.2817C74.2086 21.5293 74.4718 21.6688 74.7432 21.6688Z" fill="#5C546A"/>
<path d="M76.2756 26.8172C76.3611 27.1733 76.6862 27.4054 77.0347 27.4054C77.0892 27.4054 77.1504 27.3978 77.2124 27.3827C77.6305 27.2814 77.8861 26.8633 77.7855 26.4452C77.6774 26.0354 77.2593 25.7798 76.8487 25.8804C76.4307 25.9809 76.1751 26.399 76.2756 26.8172Z" fill="#5C546A"/>
<path d="M45.3624 51.3124C44.9828 51.1188 44.5111 51.2662 44.3175 51.6457C44.124 52.0245 44.2707 52.4971 44.6578 52.6906C44.7666 52.7451 44.8898 52.7761 45.0064 52.7761C45.2854 52.7761 45.556 52.621 45.6951 52.3504C45.8886 51.9708 45.7419 51.5059 45.3624 51.3124Z" fill="#5C546A"/>
<path d="M75.3699 23.9759C75.3624 23.9759 75.3624 23.9759 75.3624 23.9759C75.4864 24.2775 75.7805 24.4635 76.0822 24.4635C76.1827 24.4635 76.2757 24.4401 76.3687 24.409C76.7717 24.2465 76.9653 23.7974 76.8027 23.3951C76.6476 23.0001 76.1986 22.8065 75.7956 22.9691C75.4009 23.1242 75.2074 23.5729 75.3699 23.9759Z" fill="#5C546A"/>
<path d="M37.3498 45.6065C37.0164 45.8779 36.9627 46.3655 37.2334 46.6982C37.3884 46.8842 37.6129 46.9772 37.8374 46.9772C38.0075 46.9772 38.1777 46.9227 38.3251 46.807C38.6578 46.5356 38.7046 46.0479 38.4332 45.7153C38.1626 45.3826 37.6749 45.3358 37.3498 45.6065Z" fill="#5C546A"/>
<path d="M33.432 26.5306C33.5015 26.554 33.5718 26.5616 33.6414 26.5616C33.9816 26.5616 34.2916 26.3446 34.3922 26.0044C34.5086 25.5938 34.2682 25.1606 33.8577 25.0442C33.4479 24.9277 33.0214 25.1606 32.8983 25.5786C32.7817 25.9885 33.0214 26.4149 33.432 26.5306Z" fill="#5C546A"/>
<path d="M57.1379 10.412C57.1613 10.412 57.1847 10.412 57.2074 10.412C57.6021 10.412 57.9431 10.11 57.9816 9.70739C58.0126 9.28178 57.7034 8.90223 57.277 8.87116C56.8514 8.83265 56.4719 9.14223 56.4333 9.57578C56.3946 9.99394 56.7122 10.3735 57.1379 10.412Z" fill="#5C546A"/>
<path d="M77.7948 29.6848C77.8091 29.6855 77.8234 29.6869 77.8376 29.688C77.8619 29.6896 77.8862 29.6911 77.9103 29.6935C77.9284 29.6953 77.9463 29.6979 77.9644 29.7002C77.9843 29.7026 78.0043 29.7048 78.0241 29.7077C78.0443 29.7107 78.0643 29.7146 78.0844 29.7182C78.1014 29.7212 78.1186 29.7239 78.1355 29.7273C78.1576 29.7317 78.1793 29.7368 78.2011 29.7419C78.2157 29.7453 78.2304 29.7484 78.2449 29.7519C78.2682 29.7578 78.2913 29.7644 78.3143 29.7709C78.3184 29.7721 78.3227 29.7731 78.3269 29.7744C78.3332 29.7189 78.3339 29.6619 78.3277 29.604C78.2816 29.1784 77.9021 28.8691 77.484 28.9152C77.05 28.9537 76.7483 29.3333 76.7869 29.759C76.79 29.791 76.7958 29.8221 76.8028 29.8529C77.0728 29.7429 77.3679 29.682 77.6775 29.682C77.7168 29.6818 77.7559 29.6828 77.7948 29.6848Z" fill="#5C546A"/>
<path d="M77.1739 36.8272C76.7558 36.7191 76.3377 36.967 76.2296 37.3852C76.1215 37.7949 76.3763 38.2214 76.7868 38.322C76.8564 38.3446 76.9183 38.3529 76.9804 38.3529C77.3289 38.3529 77.6389 38.1201 77.7311 37.764C77.8324 37.3541 77.5844 36.9277 77.1739 36.8272Z" fill="#5C546A"/>
<path d="M73.3807 45.2352C73.0474 44.9721 72.5597 45.0258 72.2966 45.3667C72.0335 45.6994 72.0879 46.1871 72.4281 46.4509C72.5673 46.5665 72.7381 46.621 72.9006 46.621C73.1327 46.621 73.3573 46.5205 73.5123 46.3194C73.7755 45.986 73.721 45.4983 73.3807 45.2352Z" fill="#5C546A"/>
<path d="M39.3858 47.9374C39.0917 48.2465 39.1144 48.7342 39.4243 49.0291C39.5717 49.1682 39.7653 49.2377 39.9506 49.2377C40.16 49.2377 40.3686 49.1523 40.5237 48.9897C40.8102 48.6729 40.7868 48.1845 40.4775 47.8904C40.1676 47.6039 39.6724 47.6197 39.3858 47.9374Z" fill="#5C546A"/>
<path d="M70.2992 47.5888C69.9892 47.8829 69.9816 48.3705 70.2757 48.6805C70.4308 48.8355 70.6319 48.9202 70.8337 48.9202C71.0273 48.9202 71.2208 48.8431 71.3676 48.6957C71.6775 48.4016 71.6851 47.9139 71.391 47.604C71.0892 47.2947 70.6008 47.2871 70.2992 47.5888Z" fill="#5C546A"/>
<path d="M76.2992 39.8C75.9045 39.6299 75.4554 39.8234 75.2929 40.2181C75.1303 40.6135 75.3163 41.0702 75.711 41.2326C75.8115 41.2712 75.9121 41.2871 76.0051 41.2871C76.315 41.2871 76.6008 41.1087 76.7249 40.807C76.8874 40.4116 76.6938 39.9549 76.2992 39.8Z" fill="#5C546A"/>
<path d="M76.8476 34.1737C76.8039 34.2575 76.7741 34.3504 76.7633 34.451C76.7171 34.8691 77.0272 35.2562 77.4528 35.3023C77.4762 35.3099 77.5073 35.3099 77.5375 35.3099C77.9246 35.3099 78.2655 35.0158 78.3041 34.6211C78.3183 34.4924 78.3001 34.3675 78.2566 34.2542C78.0714 34.3017 77.8774 34.327 77.6773 34.327C77.385 34.3269 77.1054 34.2724 76.8476 34.1737Z" fill="#5C546A"/>
<path d="M75.0297 42.6185C74.6577 42.4016 74.1859 42.5255 73.9765 42.8968C73.7595 43.2688 73.8835 43.7413 74.2472 43.9575C74.3711 44.0279 74.5111 44.0581 74.6426 44.0581C74.9057 44.0581 75.1688 43.9189 75.3079 43.671C75.525 43.3073 75.4009 42.8272 75.0297 42.6185Z" fill="#5C546A"/>
<path d="M50.9912 53.2713C50.9912 53.2637 50.9912 53.2637 50.9912 53.2637C50.5648 53.1858 50.1625 53.4573 50.0771 53.8753C49.9925 54.2934 50.2707 54.7032 50.6887 54.7887C50.7356 54.7962 50.7893 54.7962 50.8361 54.8045C51.1998 54.8045 51.5249 54.549 51.5945 54.1771C51.6799 53.7589 51.4085 53.3484 50.9912 53.2713Z" fill="#5C546A"/>
<path d="M48.0486 11.4958C48.1265 11.4958 48.2112 11.4882 48.2967 11.4573C48.6989 11.3178 48.9158 10.8842 48.7843 10.474C48.6452 10.0715 48.2037 9.85448 47.8015 9.99394C47.3985 10.1255 47.174 10.567 47.3138 10.9692C47.4218 11.2947 47.7236 11.4958 48.0486 11.4958Z" fill="#5C546A"/>
<path d="M34.3922 23.5888C34.4927 23.6349 34.6008 23.6584 34.7021 23.6584C35.0038 23.6584 35.2828 23.4882 35.4143 23.1937C35.5844 22.8066 35.406 22.35 35.0189 22.1719C34.6242 22.0014 34.1675 22.1798 33.9974 22.5669C33.8191 22.9617 33.9975 23.4184 34.3922 23.5888Z" fill="#5C546A"/>
<path d="M40.1056 16.1799C40.2916 16.1799 40.4776 16.1179 40.6242 15.9784C40.9417 15.6919 40.9652 15.2043 40.6787 14.8867C40.3846 14.5696 39.897 14.5461 39.5795 14.8403C39.2619 15.1268 39.2385 15.6145 39.5326 15.932C39.6799 16.0945 39.8886 16.1799 40.1056 16.1799Z" fill="#5C546A"/>
<path d="M37.4655 18.239C37.6129 18.363 37.7906 18.4171 37.9615 18.4171C38.186 18.4171 38.4106 18.3241 38.5648 18.1385C38.8362 17.8134 38.7893 17.3257 38.4567 17.0467C38.1316 16.7757 37.644 16.8222 37.3725 17.1477C37.0943 17.4803 37.1404 17.9679 37.4655 18.239Z" fill="#5C546A"/>
<path d="M35.747 20.8096C35.871 20.8867 36.0101 20.9256 36.1492 20.9256C36.4131 20.9256 36.6603 20.7941 36.8077 20.5616C37.0398 20.1979 36.9234 19.7178 36.5597 19.4933C36.2036 19.2688 35.7235 19.3773 35.499 19.7409C35.2669 20.1049 35.3833 20.585 35.747 20.8096Z" fill="#5C546A"/>
<path d="M48.103 52.482C47.7008 52.3421 47.2593 52.5591 47.1202 52.9613C46.9804 53.3643 47.1898 53.8058 47.5995 53.9525C47.685 53.9759 47.7704 53.991 47.8475 53.991C48.1726 53.991 48.4667 53.7899 48.5832 53.4724C48.7223 53.0626 48.5136 52.6286 48.103 52.482Z" fill="#5C546A"/>
<path d="M45.1923 12.6881C45.3079 12.6881 45.4243 12.6651 45.5408 12.6031C45.9196 12.4171 46.0746 11.9449 45.8811 11.5654C45.6951 11.1862 45.2309 11.0312 44.8438 11.2172V11.2247C44.4642 11.4107 44.3093 11.8753 44.5028 12.2624C44.6344 12.5331 44.9134 12.6881 45.1923 12.6881Z" fill="#5C546A"/>
<path d="M62.9443 11.7434C63.0373 11.7744 63.1303 11.7899 63.2233 11.7899C63.5325 11.7899 63.8266 11.6043 63.9431 11.2947C64.0982 10.8921 63.897 10.443 63.5015 10.296C63.0994 10.1409 62.6502 10.3424 62.5028 10.7451C62.3485 11.1397 62.5497 11.5888 62.9443 11.7434Z" fill="#5C546A"/>
<path d="M42.5287 14.2595C42.6761 14.2595 42.8312 14.2134 42.9627 14.1204C43.3188 13.8804 43.4035 13.4003 43.1638 13.0442C42.9234 12.696 42.444 12.603 42.0879 12.8506C41.7394 13.0906 41.6464 13.5707 41.8861 13.9268C42.0411 14.1435 42.2815 14.2595 42.5287 14.2595Z" fill="#5C546A"/>
<path d="M59.8944 53.1783C59.4763 53.2713 59.2124 53.6818 59.3054 54.0998C59.3833 54.4635 59.7008 54.7115 60.057 54.7115C60.1107 54.7115 60.1726 54.7031 60.2271 54.688C60.6452 54.595 60.9083 54.1845 60.8153 53.7665C60.7223 53.3484 60.3118 53.0853 59.8944 53.1783Z" fill="#5C546A"/>
<path d="M60.0879 10.8766C60.1492 10.8921 60.2036 10.8921 60.2656 10.8921C60.6142 10.8921 60.9317 10.6521 61.0164 10.296C61.1094 9.8779 60.8538 9.45974 60.4357 9.36674C60.0177 9.27374 59.5995 9.52932 59.5073 9.94739C59.4143 10.3655 59.6699 10.7757 60.0879 10.8766Z" fill="#5C546A"/>
<path d="M56.8904 23.6514C57.02 23.6771 57.1484 23.7058 57.2758 23.7372C57.1483 23.7058 57.0199 23.677 56.8904 23.6514Z" fill="#708AFF"/>
<path d="M56.4862 23.5812C56.6155 23.6005 56.7438 23.6226 56.8711 23.6476C56.7437 23.6227 56.6155 23.6004 56.4862 23.5812Z" fill="#708AFF"/>
<path d="M57.2856 23.7396C58.7321 24.0996 60.0322 24.83 61.0805 25.8233C60.743 25.7826 60.4001 25.7592 60.0516 25.7592C55.3483 25.7592 51.5355 29.572 51.5355 34.2754C51.5355 36.71 52.5589 38.9044 54.1969 40.4564C51.4303 40.1229 49.0717 38.464 47.7763 36.1329C49.2296 38.7495 52.0206 40.5205 55.2259 40.5205C59.9292 40.5205 63.742 36.7077 63.742 32.0044C63.7419 28.0114 60.9936 24.6608 57.2856 23.7396Z" fill="#708AFF"/>
<path d="M56.0735 23.5301C56.2038 23.5431 56.3332 23.5591 56.4617 23.5778C56.3332 23.5592 56.2039 23.5431 56.0735 23.5301Z" fill="#708AFF"/>
<path d="M46.9373 33.9667C46.9106 33.8536 46.8864 33.7394 46.8643 33.6245C46.8864 33.7394 46.9106 33.8535 46.9373 33.9667Z" fill="#708AFF"/>
<path d="M46.719 32.3866C46.7131 32.2598 46.7096 32.1325 46.7096 32.0044C46.7097 32.1325 46.7132 32.2598 46.719 32.3866Z" fill="#708AFF"/>
<path d="M46.7453 32.781C46.7344 32.6616 46.7257 32.5416 46.7199 32.421C46.7257 32.5416 46.7344 32.6615 46.7453 32.781Z" fill="#708AFF"/>
<path d="M47.2832 35.0817C47.1926 34.8483 47.1121 34.6099 47.042 34.367C47.1121 34.6099 47.1927 34.8483 47.2832 35.0817Z" fill="#708AFF"/>
<path d="M46.7906 33.178C46.7747 33.063 46.761 32.9472 46.7497 32.8308C46.761 32.9472 46.7747 33.063 46.7906 33.178Z" fill="#708AFF"/>
<path d="M47.4289 35.4335C47.3797 35.3219 47.3327 35.2091 47.2882 35.095C47.3327 35.2091 47.3797 35.3219 47.4289 35.4335Z" fill="#708AFF"/>
<path d="M47.5925 35.7831C47.5385 35.6745 47.487 35.5647 47.4376 35.4536C47.487 35.5647 47.5386 35.6745 47.5925 35.7831Z" fill="#708AFF"/>
<path d="M47.0382 34.3541C47.0051 34.2386 46.9747 34.1219 46.9465 34.0043C46.9747 34.1219 47.0051 34.2386 47.0382 34.3541Z" fill="#708AFF"/>
<path d="M55.2258 23.4882C55.3636 23.4882 55.5006 23.492 55.6369 23.4987C55.5006 23.492 55.3636 23.4882 55.2258 23.4882Z" fill="#708AFF"/>
<path d="M55.6532 23.4989C55.7862 23.5055 55.9183 23.5154 56.0496 23.528C55.9182 23.5154 55.7861 23.5055 55.6532 23.4989Z" fill="#708AFF"/>
<path d="M47.773 36.1272C47.7133 36.0197 47.6561 35.9106 47.601 35.8002C47.6561 35.9106 47.7134 36.0196 47.773 36.1272Z" fill="#708AFF"/>
<path d="M46.8546 33.5742C46.8335 33.4611 46.8148 33.3472 46.7982 33.2326C46.8148 33.3473 46.8335 33.4612 46.8546 33.5742Z" fill="#708AFF"/>
<path d="M54.1968 40.4564C52.5588 38.9044 51.5354 36.71 51.5354 34.2754C51.5354 29.572 55.3482 25.7592 60.0515 25.7592C60.4 25.7592 60.7429 25.7826 61.0805 25.8233C60.0321 24.83 58.732 24.0996 57.2855 23.7396C57.2823 23.7389 57.279 23.7381 57.2757 23.7372C57.1483 23.7057 57.0199 23.677 56.8903 23.6514C56.8839 23.6501 56.8775 23.649 56.871 23.6477C56.7436 23.6227 56.6154 23.6005 56.4861 23.5813C56.478 23.5802 56.4698 23.5791 56.4617 23.5779C56.3332 23.5593 56.2038 23.5432 56.0735 23.5302C56.0656 23.5295 56.0576 23.5289 56.0496 23.5281C55.9183 23.5155 55.7862 23.5055 55.6532 23.499C55.6477 23.4987 55.6423 23.4986 55.6369 23.4984C55.5006 23.4919 55.3637 23.4883 55.2258 23.4883C50.5225 23.4883 46.7097 27.3011 46.7097 32.0045C46.7097 32.1326 46.7131 32.2599 46.7187 32.3867C46.7192 32.3981 46.7195 32.4096 46.7199 32.421C46.7257 32.5417 46.7345 32.6616 46.7453 32.781C46.7468 32.7975 46.7481 32.8142 46.7497 32.8308C46.761 32.9473 46.7747 33.063 46.7906 33.178C46.7931 33.1962 46.7956 33.2144 46.7982 33.2326C46.8148 33.3472 46.8335 33.4611 46.8546 33.5742C46.8577 33.591 46.861 33.6077 46.8643 33.6245C46.8865 33.7394 46.9107 33.8535 46.9373 33.9667C46.9403 33.9793 46.9435 33.9918 46.9465 34.0044C46.9747 34.1219 47.0051 34.2386 47.0382 34.3542C47.0395 34.3585 47.0408 34.3627 47.0421 34.3671C47.1122 34.61 47.1927 34.8484 47.2833 35.0818C47.285 35.0862 47.2865 35.0907 47.2883 35.095C47.3328 35.2091 47.3798 35.322 47.429 35.4335C47.4319 35.4402 47.4348 35.4469 47.4377 35.4536C47.4871 35.5647 47.5386 35.6745 47.5925 35.7831C47.5954 35.7888 47.5983 35.7945 47.6011 35.8003C47.6561 35.9106 47.7134 36.0197 47.7731 36.1273C47.7742 36.1293 47.7753 36.1311 47.7763 36.133C49.0717 38.464 51.4302 40.1229 54.1968 40.4564Z" fill="#3D6EDD"/>
<path d="M39.0634 21.49C39.058 21.4709 39.0526 21.4516 39.0476 21.4323C39.0526 21.4515 39.058 21.4708 39.0634 21.49Z" fill="#FFEDB9"/>
<path d="M42.4644 18.1854C42.4928 18.194 42.5209 18.2035 42.549 18.213C42.5209 18.2035 42.4928 18.194 42.4644 18.1854Z" fill="#FFEDB9"/>
<path d="M42.3395 18.1507C42.3666 18.1579 42.3934 18.1659 42.4203 18.1738C42.3934 18.1658 42.3666 18.1578 42.3395 18.1507Z" fill="#FFEDB9"/>
<path d="M42.5864 18.2256C42.6161 18.2362 42.6455 18.2475 42.6746 18.2591C42.6455 18.2476 42.6161 18.2362 42.5864 18.2256Z" fill="#FFEDB9"/>
<path d="M41.9492 18.0825C41.9704 18.0847 41.9914 18.0879 42.0124 18.0906C41.9914 18.0879 41.9704 18.0846 41.9492 18.0825Z" fill="#FFEDB9"/>
<path d="M42.7055 18.2713C42.736 18.2839 42.7663 18.2973 42.7963 18.3109C42.7663 18.2972 42.736 18.2839 42.7055 18.2713Z" fill="#FFEDB9"/>
<path d="M41.8143 18.0724C41.8313 18.0733 41.8481 18.0751 41.8651 18.0763C41.8481 18.075 41.8314 18.0733 41.8143 18.0724Z" fill="#FFEDB9"/>
<path d="M42.0817 18.0991C42.1055 18.1028 42.1288 18.1074 42.1522 18.1118C42.1288 18.1074 42.1055 18.1027 42.0817 18.0991Z" fill="#FFEDB9"/>
<path d="M42.2119 18.1219C42.2375 18.1272 42.2627 18.1335 42.288 18.1395C42.2627 18.1334 42.2375 18.1271 42.2119 18.1219Z" fill="#FFEDB9"/>
<path d="M39.244 21.971C39.2344 21.9513 39.2252 21.9312 39.216 21.9113C39.2252 21.9312 39.2344 21.9513 39.244 21.971Z" fill="#FFEDB9"/>
<path d="M42.9342 18.3782C42.9663 18.395 42.998 18.4125 43.0293 18.4306C42.998 18.4125 42.9664 18.395 42.9342 18.3782Z" fill="#FFEDB9"/>
<path d="M39.3026 22.0837C39.2915 22.0636 39.281 22.043 39.2704 22.0225C39.281 22.043 39.2915 22.0635 39.3026 22.0837Z" fill="#FFEDB9"/>
<path d="M39.1905 21.8551C39.1821 21.8355 39.174 21.8158 39.166 21.796C39.174 21.8158 39.1821 21.8355 39.1905 21.8551Z" fill="#FFEDB9"/>
<path d="M39.3663 22.1934C39.3531 22.1719 39.3407 22.15 39.3281 22.1282C39.3407 22.15 39.3531 22.1719 39.3663 22.1934Z" fill="#FFEDB9"/>
<path d="M39.6441 22.5687C39.6214 22.543 39.5991 22.5172 39.5775 22.4907C39.5991 22.5172 39.6214 22.543 39.6441 22.5687Z" fill="#FFEDB9"/>
<path d="M39.5767 22.4897C39.5071 22.4043 39.4428 22.3143 39.3838 22.2207C39.4427 22.3143 39.5071 22.4043 39.5767 22.4897Z" fill="#FFEDB9"/>
<path d="M42.8216 18.3222C42.853 18.3369 42.884 18.3523 42.9148 18.3681C42.884 18.3523 42.8529 18.3369 42.8216 18.3222Z" fill="#FFEDB9"/>
<path d="M39.0321 21.3627C39.0278 21.3437 39.0233 21.3246 39.0194 21.3056C39.0233 21.3247 39.0277 21.3437 39.0321 21.3627Z" fill="#FFEDB9"/>
<path d="M39.1005 21.6145C39.0939 21.5951 39.0877 21.5758 39.0816 21.5562C39.0877 21.5758 39.0941 21.5951 39.1005 21.6145Z" fill="#FFEDB9"/>
<path d="M39.0067 21.2325C39.0035 21.2139 39 21.1955 38.9972 21.1768C39 21.1955 39.0034 21.2139 39.0067 21.2325Z" fill="#FFEDB9"/>
<path d="M39.1433 21.7362C39.1356 21.7168 39.1283 21.6972 39.1211 21.6776C39.1283 21.6972 39.1356 21.7169 39.1433 21.7362Z" fill="#FFEDB9"/>
<path d="M38.9744 20.9574C38.9733 20.9426 38.9718 20.928 38.9711 20.9131C38.9719 20.928 38.9733 20.9427 38.9744 20.9574Z" fill="#FFEDB9"/>
<path d="M38.9875 21.0988C38.9853 21.0811 38.9828 21.0635 38.981 21.0458C38.9828 21.0635 38.9853 21.0812 38.9875 21.0988Z" fill="#FFEDB9"/>
<path d="M43.246 18.5698C43.2145 18.5473 43.1826 18.5255 43.1501 18.5045C43.1826 18.5256 43.2146 18.5474 43.246 18.5698Z" fill="#FFEDB9"/>
<path d="M40.0151 22.9177C40.0418 22.9384 40.0688 22.9588 40.0962 22.9785C40.0688 22.9588 40.0418 22.9384 40.0151 22.9177Z" fill="#FFEDB9"/>
<path d="M40.2093 23.0555C40.2409 23.076 40.2728 23.0959 40.3054 23.115C40.2729 23.0959 40.2409 23.076 40.2093 23.0555Z" fill="#FFEDB9"/>
<path d="M43.1396 18.4978C43.1335 18.4938 43.1273 18.4898 43.1212 18.486C43.0956 18.4698 43.0699 18.4541 43.0438 18.4388C43.0761 18.4579 43.1081 18.4775 43.1396 18.4978Z" fill="#FFEDB9"/>
<path d="M43.5403 18.8118C43.4329 18.7988 43.3238 18.7914 43.2129 18.7914C41.7164 18.7914 40.5033 20.0046 40.5033 21.5011C40.5033 22.2757 40.8289 22.974 41.35 23.4678C40.9729 23.4223 40.6196 23.2994 40.3065 23.1156C40.3404 23.1355 40.3746 23.1548 40.4095 23.1732C40.7879 23.374 41.2193 23.4881 41.6774 23.4881C43.1739 23.4881 44.3871 22.275 44.3871 20.7785C44.3871 20.1225 44.154 19.5211 43.7661 19.0523C43.6959 18.9675 43.6202 18.8875 43.5403 18.8118Z" fill="#FFEDB9"/>
<path d="M39.9211 22.8411C39.946 22.8624 39.9715 22.8832 39.9972 22.9036C39.9715 22.8832 39.946 22.8624 39.9211 22.8411Z" fill="#FFEDB9"/>
<path d="M43.3485 18.6464C43.3172 18.6218 43.2853 18.5979 43.2529 18.5747C43.2853 18.5979 43.3173 18.6218 43.3485 18.6464Z" fill="#FFEDB9"/>
<path d="M39.83 22.76C39.8536 22.782 39.8776 22.8034 39.9019 22.8245C39.8776 22.8035 39.8535 22.782 39.83 22.76Z" fill="#FFEDB9"/>
<path d="M43.5403 18.8118C43.5102 18.7833 43.4795 18.7555 43.4481 18.7283C43.4795 18.7555 43.5101 18.7834 43.5403 18.8118Z" fill="#FFEDB9"/>
<path d="M40.1117 22.9894C40.1405 23.0098 40.1697 23.0297 40.1992 23.049C40.1696 23.0297 40.1405 23.0098 40.1117 22.9894Z" fill="#FFEDB9"/>
<path d="M43.4466 18.727C43.4157 18.7004 43.3842 18.6745 43.3522 18.6492C43.3842 18.6745 43.4157 18.7004 43.4466 18.727Z" fill="#FFEDB9"/>
<path d="M39.8106 22.7415C39.7874 22.7195 39.7645 22.6972 39.7421 22.6744C39.7645 22.6972 39.7874 22.7195 39.8106 22.7415Z" fill="#FFEDB9"/>
<path d="M39.6578 22.5845C39.6795 22.6087 39.7018 22.6323 39.7243 22.6557C39.7018 22.6323 39.6795 22.6087 39.6578 22.5845Z" fill="#FFEDB9"/>
<path d="M39.1905 21.8551C39.1987 21.8739 39.2074 21.8926 39.216 21.9113C39.2252 21.9313 39.2344 21.9513 39.244 21.971C39.2525 21.9883 39.2615 22.0054 39.2705 22.0225C39.2811 22.043 39.2915 22.0635 39.3027 22.0837C39.3109 22.0987 39.3197 22.1134 39.3282 22.1282C39.3408 22.15 39.3532 22.172 39.3664 22.1934C39.372 22.2026 39.3781 22.2115 39.3838 22.2206C39.4428 22.3142 39.507 22.4043 39.5767 22.4896C39.577 22.4899 39.5772 22.4903 39.5775 22.4906C39.5992 22.5171 39.6215 22.5429 39.6441 22.5686C39.6479 22.5729 39.6515 22.5775 39.6553 22.5817C39.6562 22.5827 39.6571 22.5836 39.6578 22.5845C39.6795 22.6086 39.7018 22.6323 39.7243 22.6556C39.7303 22.6618 39.7361 22.6682 39.7421 22.6743C39.7645 22.6971 39.7875 22.7194 39.8106 22.7414C39.8171 22.7476 39.8235 22.7538 39.83 22.7599C39.8535 22.7819 39.8776 22.8033 39.9019 22.8245C39.9083 22.83 39.9146 22.8356 39.9211 22.841C39.946 22.8623 39.9715 22.8831 39.9972 22.9035C40.0032 22.9083 40.0092 22.913 40.0152 22.9176C40.0419 22.9384 40.0689 22.9587 40.0963 22.9784C40.1015 22.9821 40.1066 22.9857 40.1117 22.9894C40.1405 23.0098 40.1697 23.0297 40.1992 23.049C40.2026 23.0512 40.206 23.0532 40.2093 23.0555C40.2409 23.0759 40.2728 23.0958 40.3054 23.1149C40.3057 23.1151 40.306 23.1153 40.3064 23.1155C40.6195 23.2994 40.9728 23.4222 41.3499 23.4677C40.8287 22.9739 40.5032 22.2756 40.5032 21.501C40.5032 20.0045 41.7163 18.7913 43.2128 18.7913C43.3237 18.7913 43.4328 18.7987 43.5402 18.8117C43.5101 18.7832 43.4794 18.7553 43.448 18.7282C43.4475 18.7278 43.447 18.7273 43.4465 18.7269C43.4157 18.7003 43.3842 18.6744 43.3522 18.6491C43.3509 18.6482 43.3498 18.6472 43.3485 18.6462C43.3173 18.6216 43.2853 18.5977 43.2529 18.5745C43.2506 18.5729 43.2484 18.5712 43.246 18.5696C43.2146 18.5471 43.1825 18.5254 43.1501 18.5043C43.1466 18.502 43.1432 18.4998 43.1397 18.4976C43.1081 18.4774 43.0762 18.4576 43.0439 18.4386C43.039 18.4358 43.0342 18.4331 43.0294 18.4303C42.9981 18.4122 42.9665 18.3947 42.9343 18.3779C42.9278 18.3745 42.9213 18.3712 42.9148 18.3679C42.884 18.352 42.853 18.3366 42.8216 18.322C42.8133 18.3182 42.8047 18.3145 42.7964 18.3106C42.7663 18.297 42.7361 18.2836 42.7055 18.271C42.6954 18.2669 42.685 18.263 42.6748 18.2589C42.6455 18.2473 42.6163 18.236 42.5866 18.2255C42.5742 18.221 42.5616 18.217 42.5492 18.2128C42.5211 18.2032 42.493 18.1938 42.4646 18.1852C42.45 18.1807 42.4352 18.1769 42.4205 18.1726C42.3936 18.165 42.3668 18.1573 42.3397 18.1505C42.3227 18.1462 42.3054 18.1425 42.2882 18.1385C42.2629 18.1327 42.2376 18.1267 42.2121 18.1216C42.1924 18.1176 42.1723 18.1145 42.1524 18.111C42.129 18.1068 42.1055 18.1024 42.0819 18.0988C42.059 18.0954 42.0358 18.0929 42.0126 18.09C41.9915 18.0874 41.9705 18.0843 41.9494 18.0822C41.9215 18.0794 41.8934 18.0778 41.8654 18.0758C41.8484 18.0747 41.8316 18.0729 41.8145 18.0721C41.7692 18.0698 41.7236 18.0686 41.6777 18.0686C40.1812 18.0686 38.968 19.2817 38.968 20.7783C38.968 20.8234 38.9693 20.8682 38.9714 20.9128C38.9722 20.9277 38.9735 20.9423 38.9745 20.9571C38.9765 20.9866 38.9784 21.0162 38.9812 21.0455C38.9829 21.0633 38.9854 21.0809 38.9874 21.0985C38.9905 21.1245 38.9935 21.1505 38.9973 21.1764C39 21.1951 39.0034 21.2136 39.0065 21.2321C39.0106 21.2566 39.0148 21.281 39.0195 21.3052C39.0233 21.3244 39.0275 21.3433 39.0317 21.3623C39.0368 21.3855 39.0421 21.4087 39.0478 21.4318C39.0526 21.4511 39.0577 21.4704 39.063 21.4895C39.069 21.5117 39.0752 21.5339 39.0817 21.5558C39.0875 21.5753 39.0936 21.5947 39.0999 21.6141C39.1068 21.6353 39.114 21.6563 39.1213 21.6773C39.1283 21.6969 39.1353 21.7165 39.1426 21.7359C39.1502 21.7561 39.1581 21.7759 39.1662 21.7957C39.174 21.8158 39.1821 21.8355 39.1905 21.8551Z" fill="#FFD586"/>
<path d="M75.5938 33.0307C75.5662 32.975 75.5411 32.9178 75.5181 32.8595C75.5411 32.9178 75.5663 32.975 75.5938 33.0307Z" fill="#FF7400"/>
<path d="M78.7546 29.9468C78.7821 29.9613 78.8093 29.9764 78.8361 29.9918C78.8093 29.9764 78.7822 29.9613 78.7546 29.9468Z" fill="#FF7400"/>
<path d="M78.5585 29.8553C78.5849 29.8661 78.6109 29.8775 78.6367 29.8894C78.6109 29.8775 78.5849 29.8661 78.5585 29.8553Z" fill="#FF7400"/>
<path d="M78.6579 29.8988C78.6849 29.9114 78.7116 29.9247 78.7381 29.9383C78.7116 29.9247 78.6849 29.9115 78.6579 29.8988Z" fill="#FF7400"/>
<path d="M79.1129 30.1792C79.1405 30.2009 79.1675 30.2232 79.194 30.2461C79.1675 30.2232 79.1404 30.2009 79.1129 30.1792Z" fill="#FF7400"/>
<path d="M79.0277 30.1152C79.0555 30.1352 79.0829 30.1557 79.1098 30.1768C79.083 30.1557 79.0556 30.1352 79.0277 30.1152Z" fill="#FF7400"/>
<path d="M78.9396 30.0551C78.9675 30.0732 78.995 30.0919 79.0221 30.1112C78.995 30.092 78.9675 30.0732 78.9396 30.0551Z" fill="#FF7400"/>
<path d="M78.8486 29.9989C78.8764 30.0152 78.9037 30.0321 78.9308 30.0494C78.9037 30.0321 78.8764 30.0153 78.8486 29.9989Z" fill="#FF7400"/>
<path d="M75.4412 32.6313C75.4244 32.5714 75.4098 32.5106 75.3978 32.4489C75.4098 32.5107 75.4244 32.5715 75.4412 32.6313Z" fill="#FF7400"/>
<path d="M75.5082 32.8347C75.4863 32.7773 75.4665 32.7187 75.449 32.6592C75.4665 32.7187 75.4863 32.7772 75.5082 32.8347Z" fill="#FF7400"/>
<path d="M80 32.0044C80 31.3019 79.6877 30.6727 79.1949 30.2468C79.2219 30.2702 79.2484 30.2941 79.2742 30.3186C79.1822 30.3074 79.0886 30.301 78.9935 30.301C77.7108 30.301 76.671 31.3409 76.671 32.6236C76.671 33.2876 76.9501 33.886 77.3968 34.3093C77.0382 34.2661 76.7049 34.1411 76.4158 33.9539C76.5508 34.0414 76.6953 34.1153 76.8476 34.1736C77.1054 34.2724 77.3849 34.3268 77.6773 34.3268C77.8774 34.3268 78.0714 34.3015 78.2566 34.254C79.2591 33.9967 80 33.0871 80 32.0044Z" fill="#FF7400"/>
<path d="M75.3649 32.2116C75.3586 32.1433 75.3548 32.0742 75.3548 32.0044C75.3548 32.0743 75.3587 32.1433 75.3649 32.2116Z" fill="#FF7400"/>
<path d="M78.3519 29.7816C78.3764 29.7894 78.4005 29.7978 78.4246 29.8063C78.4005 29.7978 78.3764 29.7893 78.3519 29.7816Z" fill="#FF7400"/>
<path d="M75.3931 32.4225C75.3815 32.3592 75.3722 32.2952 75.3659 32.2301C75.3722 32.2952 75.3815 32.3592 75.3931 32.4225Z" fill="#FF7400"/>
<path d="M78.4566 29.8161C78.482 29.8252 78.5072 29.835 78.5323 29.8448C78.5072 29.835 78.482 29.8252 78.4566 29.8161Z" fill="#FF7400"/>
<path d="M76.2414 33.8291C76.1897 33.7884 76.1397 33.7455 76.0917 33.7006C76.1397 33.7455 76.1897 33.7883 76.2414 33.8291Z" fill="#FF7400"/>
<path d="M76.0843 33.6936C76.0361 33.6483 75.9898 33.6009 75.9456 33.5516C75.9898 33.6009 76.0362 33.6483 76.0843 33.6936Z" fill="#FF7400"/>
<path d="M76.4118 33.9515C76.3558 33.9151 76.3016 33.8762 76.249 33.8351C76.3016 33.8762 76.3558 33.915 76.4118 33.9515Z" fill="#FF7400"/>
<path d="M75.9422 33.5475C75.8523 33.4466 75.7711 33.3377 75.6997 33.2222C75.7711 33.3377 75.8523 33.4465 75.9422 33.5475Z" fill="#FF7400"/>
<path d="M75.6968 33.2178C75.6631 33.1627 75.6318 33.106 75.6027 33.0481C75.6319 33.106 75.6631 33.1627 75.6968 33.2178Z" fill="#FF7400"/>
<path d="M78.2011 29.7424C78.1793 29.7371 78.1575 29.7318 78.1356 29.7272C78.1575 29.7318 78.1793 29.7371 78.2011 29.7424Z" fill="#FF7400"/>
<path d="M78.3142 29.7717C78.2912 29.7648 78.2681 29.758 78.2448 29.7519C78.2681 29.758 78.2912 29.7648 78.3142 29.7717Z" fill="#FF7400"/>
<path d="M78.0844 29.7185C78.0643 29.7148 78.0443 29.7108 78.0241 29.7076C78.0443 29.7108 78.0642 29.7148 78.0844 29.7185Z" fill="#FF7400"/>
<path d="M77.8376 29.688C77.8233 29.687 77.8091 29.6855 77.7948 29.6847C77.8091 29.6855 77.8234 29.687 77.8376 29.688Z" fill="#FF7400"/>
<path d="M77.9644 29.7003C77.9464 29.698 77.9285 29.6953 77.9103 29.6934C77.9285 29.6953 77.9464 29.698 77.9644 29.7003Z" fill="#FF7400"/>
<path d="M77.3968 34.3095C76.9501 33.8862 76.671 33.2878 76.671 32.6238C76.671 31.3411 77.7108 30.3012 78.9935 30.3012C79.0886 30.3012 79.1821 30.3076 79.2742 30.3187C79.2484 30.2943 79.2219 30.2704 79.1949 30.247C79.1946 30.2467 79.1944 30.2466 79.1941 30.2463C79.1675 30.2233 79.1405 30.2011 79.113 30.1794C79.112 30.1786 79.1109 30.1778 79.11 30.177C79.0831 30.1559 79.0557 30.1354 79.0279 30.1154C79.026 30.1141 79.0241 30.1127 79.0222 30.1114C78.9951 30.0921 78.9677 30.0734 78.9397 30.0553C78.9368 30.0534 78.9338 30.0515 78.9308 30.0496C78.9038 30.0322 78.8764 30.0154 78.8486 29.9991C78.8445 29.9967 78.8404 29.9944 78.8362 29.992C78.8094 29.9766 78.7822 29.9615 78.7547 29.947C78.7492 29.9441 78.7437 29.9414 78.7382 29.9385C78.7117 29.9249 78.685 29.9117 78.658 29.899C78.6511 29.8957 78.6439 29.8926 78.6368 29.8895C78.611 29.8776 78.585 29.8662 78.5586 29.8554C78.5499 29.8518 78.5411 29.8485 78.5323 29.845C78.5073 29.8351 78.4821 29.8254 78.4565 29.8163C78.446 29.8125 78.4353 29.8091 78.4247 29.8056C78.4006 29.7973 78.3765 29.7893 78.352 29.7818C78.3437 29.7793 78.3352 29.777 78.3268 29.7746C78.3226 29.7734 78.3184 29.7724 78.3142 29.7711C78.2912 29.7645 78.2681 29.7579 78.2448 29.7521C78.2303 29.7485 78.2156 29.7454 78.201 29.7421C78.1792 29.737 78.1574 29.7319 78.1355 29.7275C78.1185 29.7241 78.1013 29.7214 78.0843 29.7184C78.0642 29.7148 78.0442 29.711 78.024 29.7079C78.0042 29.7049 77.9842 29.7028 77.9643 29.7004C77.9463 29.6981 77.9284 29.6955 77.9102 29.6937C77.8861 29.6913 77.8618 29.6898 77.8375 29.6882C77.8232 29.6872 77.809 29.6857 77.7947 29.685C77.7558 29.683 77.7167 29.682 77.6773 29.682C77.3678 29.682 77.0727 29.743 76.8026 29.8529C75.9536 30.1983 75.3548 31.0312 75.3548 32.0044C75.3548 32.0743 75.3585 32.1433 75.3645 32.2116C75.3651 32.2177 75.3653 32.224 75.366 32.2301C75.3723 32.2952 75.3816 32.3591 75.3932 32.4225C75.3948 32.4313 75.3962 32.4401 75.3979 32.4489C75.4099 32.5107 75.4245 32.5715 75.4413 32.6313C75.4439 32.6405 75.4465 32.6498 75.4492 32.6591C75.4667 32.7186 75.4864 32.7772 75.5084 32.8346C75.5116 32.8429 75.515 32.8512 75.5183 32.8595C75.5414 32.9177 75.5665 32.9749 75.594 33.0307C75.5969 33.0365 75.5999 33.0423 75.6028 33.0481C75.632 33.106 75.6632 33.1627 75.6969 33.2178C75.6978 33.2193 75.6989 33.2207 75.6997 33.2222C75.7711 33.3377 75.8523 33.4466 75.9422 33.5475C75.9433 33.5489 75.9445 33.5502 75.9457 33.5516C75.9899 33.6009 76.0362 33.6483 76.0844 33.6936C76.0868 33.696 76.0893 33.6983 76.0918 33.7006C76.1398 33.7455 76.1898 33.7884 76.2415 33.8291C76.244 33.8312 76.2466 33.8332 76.2491 33.8351C76.3017 33.8762 76.3559 33.915 76.4119 33.9515C76.4133 33.9523 76.4146 33.9532 76.4159 33.9541C76.7049 34.1413 77.0382 34.2663 77.3968 34.3095Z" fill="#D55A00"/>
<path d="M55.9004 42.9429C55.9249 42.9507 55.949 42.9591 55.9731 42.9676C55.949 42.9591 55.9248 42.9506 55.9004 42.9429Z" fill="#FFD042"/>
<path d="M54.9452 47.4707C54.5867 47.4275 54.2534 47.3026 53.9644 47.1154C54.2534 47.3028 54.5866 47.4275 54.9452 47.4707Z" fill="#FFD042"/>
<path d="M53.9601 47.1126C53.9042 47.0763 53.85 47.0374 53.7975 46.9964C53.85 47.0375 53.9042 47.0763 53.9601 47.1126Z" fill="#FFD042"/>
<path d="M55.6839 42.8885C55.7059 42.8931 55.7276 42.8984 55.7493 42.9036C55.7276 42.8984 55.7059 42.8931 55.6839 42.8885Z" fill="#FFD042"/>
<path d="M55.7933 42.9132C55.8165 42.9194 55.8395 42.9261 55.8625 42.933C55.8395 42.9261 55.8165 42.9193 55.7933 42.9132Z" fill="#FFD042"/>
<path d="M55.5725 42.8689C55.5927 42.872 55.6126 42.8761 55.6326 42.8797C55.6126 42.8761 55.5927 42.8721 55.5725 42.8689Z" fill="#FFD042"/>
<path d="M55.4586 42.8547C55.4768 42.8566 55.4946 42.8593 55.5127 42.8616C55.4947 42.8593 55.4768 42.8566 55.4586 42.8547Z" fill="#FFD042"/>
<path d="M53.0567 45.996C53.0347 45.9386 53.015 45.88 52.9975 45.8205C53.0149 45.88 53.0346 45.9385 53.0567 45.996Z" fill="#FFD042"/>
<path d="M52.9415 45.5838C52.9299 45.5205 52.9205 45.4565 52.9143 45.3914C52.9206 45.4565 52.9299 45.5205 52.9415 45.5838Z" fill="#FFD042"/>
<path d="M53.1423 46.192C53.1147 46.1363 53.0896 46.0791 53.0666 46.0208C53.0896 46.0791 53.1147 46.1363 53.1423 46.192Z" fill="#FFD042"/>
<path d="M53.7897 46.9903C53.738 46.9496 53.6881 46.9068 53.6401 46.862C53.6881 46.9068 53.738 46.9496 53.7897 46.9903Z" fill="#FFD042"/>
<path d="M52.9895 45.7925C52.9728 45.7326 52.9582 45.6719 52.9462 45.6102C52.9582 45.672 52.9728 45.7327 52.9895 45.7925Z" fill="#FFD042"/>
<path d="M52.9133 45.3729C52.907 45.3046 52.9032 45.2355 52.9032 45.1656C52.9032 45.2356 52.9071 45.3046 52.9133 45.3729Z" fill="#FFD042"/>
<path d="M53.4905 46.7088C53.4006 46.6079 53.3195 46.4991 53.2482 46.3835C53.3195 46.4991 53.4007 46.6078 53.4905 46.7088Z" fill="#FFD042"/>
<path d="M53.6326 46.8548C53.5845 46.8094 53.5382 46.7621 53.494 46.7129C53.5382 46.7622 53.5845 46.8094 53.6326 46.8548Z" fill="#FFD042"/>
<path d="M53.2452 46.379C53.2115 46.324 53.1803 46.2672 53.1511 46.2094C53.1803 46.2672 53.2115 46.3239 53.2452 46.379Z" fill="#FFD042"/>
<path d="M55.3432 42.8461C55.3575 42.8468 55.3717 42.8483 55.386 42.8493C55.3717 42.8483 55.3575 42.8468 55.3432 42.8461Z" fill="#FFD042"/>
<path d="M56.1069 43.0166C56.1333 43.0274 56.1593 43.0388 56.1851 43.0506C56.1593 43.0388 56.1334 43.0274 56.1069 43.0166Z" fill="#FFD042"/>
<path d="M56.2063 43.0601C56.2333 43.0727 56.26 43.086 56.2864 43.0995C56.2599 43.086 56.2333 43.0728 56.2063 43.0601Z" fill="#FFD042"/>
<path d="M57.5484 45.1656C57.5484 45.1372 57.5472 45.109 57.5463 45.0809C57.5459 45.0699 57.546 45.0589 57.5454 45.0481C57.5127 44.3932 57.2084 43.8102 56.7432 43.4082C56.7702 43.4315 56.7966 43.4555 56.8225 43.4799C56.7305 43.4688 56.6369 43.4624 56.5418 43.4624C55.2591 43.4624 54.2193 44.5023 54.2193 45.785C54.2193 46.449 54.4984 47.0474 54.9451 47.4707C55.0371 47.4818 55.1307 47.4882 55.2257 47.4882C56.5085 47.4882 57.5484 46.4484 57.5484 45.1656Z" fill="#FFD042"/>
<path d="M56.0049 42.9774C56.0304 42.9865 56.0555 42.9963 56.0806 43.0061C56.0555 42.9963 56.0304 42.9865 56.0049 42.9774Z" fill="#FFD042"/>
<path d="M56.6613 43.3405C56.6888 43.3622 56.7158 43.3845 56.7424 43.4074C56.7158 43.3845 56.6888 43.3622 56.6613 43.3405Z" fill="#FFD042"/>
<path d="M56.5761 43.2765C56.6039 43.2964 56.6313 43.317 56.6582 43.3381C56.6314 43.317 56.604 43.2964 56.5761 43.2765Z" fill="#FFD042"/>
<path d="M56.3031 43.1081C56.3306 43.1225 56.3577 43.1375 56.3845 43.153C56.3577 43.1375 56.3306 43.1225 56.3031 43.1081Z" fill="#FFD042"/>
<path d="M56.397 43.1603C56.4247 43.1765 56.4521 43.1934 56.4791 43.2108C56.4521 43.1934 56.4247 43.1765 56.397 43.1603Z" fill="#FFD042"/>
<path d="M56.488 43.2164C56.5159 43.2345 56.5434 43.2532 56.5705 43.2724C56.5434 43.2533 56.5159 43.2345 56.488 43.2164Z" fill="#FFD042"/>
<path d="M54.2194 45.785C54.2194 44.5023 55.2592 43.4624 56.5419 43.4624C56.637 43.4624 56.7305 43.4688 56.8226 43.4799C56.7967 43.4555 56.7703 43.4315 56.7433 43.4082C56.743 43.4079 56.7427 43.4077 56.7425 43.4075C56.7159 43.3845 56.6888 43.3623 56.6614 43.3406C56.6604 43.3398 56.6593 43.339 56.6584 43.3382C56.6315 43.3171 56.6041 43.2965 56.5763 43.2766C56.5744 43.2753 56.5725 43.2739 56.5706 43.2725C56.5435 43.2533 56.5161 43.2346 56.4881 43.2165C56.4852 43.2146 56.4822 43.2127 56.4792 43.2108C56.4522 43.1934 56.4248 43.1765 56.3971 43.1603C56.3929 43.1579 56.3887 43.1555 56.3846 43.1531C56.3578 43.1376 56.3307 43.1226 56.3032 43.1082C56.2977 43.1053 56.2921 43.1025 56.2865 43.0997C56.26 43.0861 56.2334 43.0729 56.2064 43.0603C56.1995 43.057 56.1923 43.0539 56.1852 43.0507C56.1594 43.0389 56.1334 43.0275 56.107 43.0167C56.0983 43.0131 56.0894 43.0098 56.0807 43.0063C56.0556 42.9964 56.0305 42.9867 56.005 42.9776C55.9945 42.9738 55.9838 42.9704 55.9732 42.9668C55.9491 42.9586 55.9249 42.9506 55.9005 42.9431C55.888 42.9394 55.8753 42.936 55.8627 42.9324C55.8397 42.9258 55.8167 42.9193 55.7935 42.9134C55.779 42.9097 55.7642 42.9066 55.7495 42.9033C55.7278 42.8982 55.7061 42.8931 55.6841 42.8887C55.6672 42.8854 55.65 42.8826 55.6328 42.8795C55.6128 42.876 55.5929 42.8722 55.5726 42.8692C55.5529 42.8662 55.5329 42.8641 55.5129 42.8616C55.4949 42.8594 55.477 42.8568 55.4588 42.855C55.4347 42.8525 55.4105 42.8511 55.3862 42.8494C55.3718 42.8485 55.3577 42.847 55.3434 42.8464C55.3045 42.8444 55.2654 42.8434 55.226 42.8434C53.9433 42.8434 52.9034 43.8832 52.9034 45.1659C52.9034 45.2359 52.9071 45.3049 52.9131 45.3732C52.9137 45.3794 52.9139 45.3856 52.9145 45.3917C52.9208 45.4567 52.9302 45.5207 52.9417 45.5841C52.9434 45.5929 52.9447 45.6017 52.9465 45.6105C52.9585 45.6723 52.9731 45.733 52.9898 45.7928C52.9925 45.8021 52.9951 45.8114 52.9978 45.8207C53.0153 45.8802 53.0349 45.9388 53.057 45.9962C53.0602 46.0045 53.0636 46.0128 53.0669 46.0211C53.09 46.0793 53.1151 46.1365 53.1425 46.1923C53.1455 46.1981 53.1485 46.2038 53.1514 46.2096C53.1806 46.2675 53.2117 46.3243 53.2455 46.3793C53.2465 46.3808 53.2475 46.3823 53.2484 46.3838C53.3197 46.4994 53.4009 46.6082 53.4907 46.7091C53.492 46.7104 53.4931 46.7118 53.4943 46.7132C53.5385 46.7625 53.5848 46.8097 53.6329 46.8551C53.6354 46.8574 53.6378 46.8599 53.6404 46.8622C53.6884 46.9071 53.7383 46.9499 53.79 46.9905C53.7926 46.9925 53.7952 46.9946 53.7978 46.9966C53.8503 47.0375 53.9045 47.0764 53.9604 47.1128C53.9617 47.1137 53.9632 47.1146 53.9645 47.1155C54.2536 47.3028 54.5869 47.4277 54.9454 47.4709C54.4985 47.0474 54.2194 46.449 54.2194 45.785Z" fill="#DBB246"/>
<path d="M1.72 33C1.72 30.7333 2.17333 28.76 3.08 27.08C3.98667 25.3733 5.24 24.0533 6.84 23.12C8.46667 22.1867 10.32 21.72 12.4 21.72C15.0933 21.72 17.3067 22.3733 19.04 23.68C20.8 24.9867 21.96 26.8 22.52 29.12H18.6C18.2267 27.7867 17.4933 26.7333 16.4 25.96C15.3333 25.1867 14 24.8 12.4 24.8C10.32 24.8 8.64 25.52 7.36 26.96C6.08 28.3733 5.44 30.3867 5.44 33C5.44 35.64 6.08 37.68 7.36 39.12C8.64 40.56 10.32 41.28 12.4 41.28C14 41.28 15.3333 40.9067 16.4 40.16C17.4667 39.4133 18.2 38.3467 18.6 36.96H22.52C21.9333 39.2 20.76 41 19 42.36C17.24 43.6933 15.04 44.36 12.4 44.36C10.32 44.36 8.46667 43.8933 6.84 42.96C5.24 42.0267 3.98667 40.7067 3.08 39C2.17333 37.2933 1.72 35.2933 1.72 33Z" fill="#4169E1"/>
<path d="M89.72 32.96C89.72 30.72 90.1733 28.76 91.08 27.08C91.9867 25.3733 93.2267 24.0533 94.8 23.12C96.4 22.1867 98.1867 21.72 100.16 21.72C101.867 21.72 103.453 22.12 104.92 22.92C106.387 23.6933 107.507 24.72 108.28 26V14.4H111.96V44H108.28V39.88C107.56 41.1867 106.493 42.2667 105.08 43.12C103.667 43.9467 102.013 44.36 100.12 44.36C98.1733 44.36 96.4 43.88 94.8 42.92C93.2267 41.96 91.9867 40.6133 91.08 38.88C90.1733 37.1467 89.72 35.1733 89.72 32.96ZM108.28 33C108.28 31.3467 107.947 29.9067 107.28 28.68C106.613 27.4533 105.707 26.52 104.56 25.88C103.44 25.2133 102.2 24.88 100.84 24.88C99.48 24.88 98.24 25.2 97.12 25.84C96 26.48 95.1067 27.4133 94.44 28.64C93.7733 29.8667 93.44 31.3067 93.44 32.96C93.44 34.64 93.7733 36.1067 94.44 37.36C95.1067 38.5867 96 39.5333 97.12 40.2C98.24 40.84 99.48 41.16 100.84 41.16C102.2 41.16 103.44 40.84 104.56 40.2C105.707 39.5333 106.613 38.5867 107.28 37.36C107.947 36.1067 108.28 34.6533 108.28 33ZM148.775 32.2C148.775 32.8933 148.735 33.6267 148.655 34.4H131.135C131.269 36.56 132.002 38.2533 133.335 39.48C134.695 40.68 136.335 41.28 138.255 41.28C139.829 41.28 141.135 40.92 142.175 40.2C143.242 39.4533 143.989 38.4667 144.415 37.24H148.335C147.749 39.3467 146.575 41.0667 144.815 42.4C143.055 43.7067 140.869 44.36 138.255 44.36C136.175 44.36 134.309 43.8933 132.655 42.96C131.029 42.0267 129.749 40.7067 128.815 39C127.882 37.2667 127.415 35.2667 127.415 33C127.415 30.7333 127.869 28.7467 128.775 27.04C129.682 25.3333 130.949 24.0267 132.575 23.12C134.229 22.1867 136.122 21.72 138.255 21.72C140.335 21.72 142.175 22.1733 143.775 23.08C145.375 23.9867 146.602 25.24 147.455 26.84C148.335 28.4133 148.775 30.2 148.775 32.2ZM145.015 31.44C145.015 30.0533 144.709 28.8667 144.095 27.88C143.482 26.8667 142.642 26.1067 141.575 25.6C140.535 25.0667 139.375 24.8 138.095 24.8C136.255 24.8 134.682 25.3867 133.375 26.56C132.095 27.7333 131.362 29.36 131.175 31.44H145.015ZM166.124 18.52C165.431 18.52 164.844 18.28 164.364 17.8C163.884 17.32 163.644 16.7333 163.644 16.04C163.644 15.3467 163.884 14.76 164.364 14.28C164.844 13.8 165.431 13.56 166.124 13.56C166.791 13.56 167.351 13.8 167.804 14.28C168.284 14.76 168.524 15.3467 168.524 16.04C168.524 16.7333 168.284 17.32 167.804 17.8C167.351 18.28 166.791 18.52 166.124 18.52ZM167.884 22.08V44H164.244V22.08H167.884ZM183.392 32.96C183.392 30.72 183.845 28.76 184.752 27.08C185.659 25.3733 186.899 24.0533 188.472 23.12C190.072 22.1867 191.845 21.72 193.792 21.72C195.712 21.72 197.379 22.1333 198.792 22.96C200.205 23.7867 201.259 24.8267 201.952 26.08V22.08H205.632V44H201.952V39.92C201.232 41.2 200.152 42.2667 198.712 43.12C197.299 43.9467 195.645 44.36 193.752 44.36C191.805 44.36 190.045 43.88 188.472 42.92C186.899 41.96 185.659 40.6133 184.752 38.88C183.845 37.1467 183.392 35.1733 183.392 32.96ZM201.952 33C201.952 31.3467 201.619 29.9067 200.952 28.68C200.285 27.4533 199.379 26.52 198.232 25.88C197.112 25.2133 195.872 24.88 194.512 24.88C193.152 24.88 191.912 25.2 190.792 25.84C189.672 26.48 188.779 27.4133 188.112 28.64C187.445 29.8667 187.112 31.3067 187.112 32.96C187.112 34.64 187.445 36.1067 188.112 37.36C188.779 38.5867 189.672 39.5333 190.792 40.2C191.912 40.84 193.152 41.16 194.512 41.16C195.872 41.16 197.112 40.84 198.232 40.2C199.379 39.5333 200.285 38.5867 200.952 37.36C201.619 36.1067 201.952 34.6533 201.952 33ZM226.087 14.4V44H222.447V14.4H226.087Z" fill="#4169E1"/>
</svg>
