<svg id="visual" viewBox="0 0 960 300" width="960" height="300" xmlns="http://www.w3.org/2000/svg" xmlns:xlink="http://www.w3.org/1999/xlink" version="1.1"><rect x="0" y="0" width="960" height="300" fill="#ffffff"></rect><path d="M0 199L22.8 200.2C45.7 201.3 91.3 203.7 137 196.7C182.7 189.7 228.3 173.3 274 177.7C319.7 182 365.3 207 411.2 212.7C457 218.3 503 204.7 548.8 202.8C594.7 201 640.3 211 686 218.3C731.7 225.7 777.3 230.3 823 218.8C868.7 207.3 914.3 179.7 937.2 165.8L960 152L960 0L937.2 0C914.3 0 868.7 0 823 0C777.3 0 731.7 0 686 0C640.3 0 594.7 0 548.8 0C503 0 457 0 411.2 0C365.3 0 319.7 0 274 0C228.3 0 182.7 0 137 0C91.3 0 45.7 0 22.8 0L0 0Z" fill="#1cb5e0"></path><path d="M0 178L22.8 175.8C45.7 173.7 91.3 169.3 137 167C182.7 164.7 228.3 164.3 274 160.7C319.7 157 365.3 150 411.2 149.7C457 149.3 503 155.7 548.8 153.8C594.7 152 640.3 142 686 134.7C731.7 127.3 777.3 122.7 823 126.5C868.7 130.3 914.3 142.7 937.2 148.8L960 155L960 0L937.2 0C914.3 0 868.7 0 823 0C777.3 0 731.7 0 686 0C640.3 0 594.7 0 548.8 0C503 0 457 0 411.2 0C365.3 0 319.7 0 274 0C228.3 0 182.7 0 137 0C91.3 0 45.7 0 22.8 0L0 0Z" fill="#0087c1"></path><path d="M0 126L22.8 130.2C45.7 134.3 91.3 142.7 137 141.5C182.7 140.3 228.3 129.7 274 122C319.7 114.3 365.3 109.7 411.2 116.7C457 123.7 503 142.3 548.8 141.3C594.7 140.3 640.3 119.7 686 117C731.7 114.3 777.3 129.7 823 134C868.7 138.3 914.3 131.7 937.2 128.3L960 125L960 0L937.2 0C914.3 0 868.7 0 823 0C777.3 0 731.7 0 686 0C640.3 0 594.7 0 548.8 0C503 0 457 0 411.2 0C365.3 0 319.7 0 274 0C228.3 0 182.7 0 137 0C91.3 0 45.7 0 22.8 0L0 0Z" fill="#005a9c"></path><path d="M0 85L22.8 81.2C45.7 77.3 91.3 69.7 137 71.7C182.7 73.7 228.3 85.3 274 85.5C319.7 85.7 365.3 74.3 411.2 71.3C457 68.3 503 73.7 548.8 77.5C594.7 81.3 640.3 83.7 686 81.5C731.7 79.3 777.3 72.7 823 76.7C868.7 80.7 914.3 95.3 937.2 102.7L960 110L960 0L937.2 0C914.3 0 868.7 0 823 0C777.3 0 731.7 0 686 0C640.3 0 594.7 0 548.8 0C503 0 457 0 411.2 0C365.3 0 319.7 0 274 0C228.3 0 182.7 0 137 0C91.3 0 45.7 0 22.8 0L0 0Z" fill="#002e72"></path><path d="M0 54L22.8 49.2C45.7 44.3 91.3 34.7 137 31.3C182.7 28 228.3 31 274 36.2C319.7 41.3 365.3 48.7 411.2 53.5C457 58.3 503 60.7 548.8 61C594.7 61.3 640.3 59.7 686 56.3C731.7 53 777.3 48 823 49.7C868.7 51.3 914.3 59.7 937.2 63.8L960 68L960 0L937.2 0C914.3 0 868.7 0 823 0C777.3 0 731.7 0 686 0C640.3 0 594.7 0 548.8 0C503 0 457 0 411.2 0C365.3 0 319.7 0 274 0C228.3 0 182.7 0 137 0C91.3 0 45.7 0 22.8 0L0 0Z" fill="#000046"></path></svg>